<svg width="36" height="36" viewBox="0 0 36 36" fill="none" xmlns="http://www.w3.org/2000/svg">
<g clip-path="url(#clip0_109_148)">
<path d="M18 36C8.0604 36 0 27.9396 0 18C0 8.0604 8.0604 0 18 0C27.9396 0 36 8.0604 36 18C36 27.9396 27.9396 36 18 36Z" fill="url(#paint0_linear_109_148)"/>
<path d="M18.0004 7.9272C21.28 7.9272 21.6688 7.938 22.9648 7.9992C24.1636 8.0532 24.8152 8.2548 25.2472 8.424C25.8196 8.6472 26.23 8.9136 26.6584 9.342C27.0868 9.7704 27.3532 10.1808 27.5764 10.7532C27.7456 11.1852 27.9436 11.8368 28.0012 13.0356C28.0588 14.3316 28.0732 14.7204 28.0732 18C28.0732 21.2796 28.0624 21.6684 28.0012 22.9644C27.9472 24.1632 27.7456 24.8148 27.5764 25.2468C27.3532 25.8192 27.0868 26.2296 26.6584 26.658C26.23 27.0864 25.8196 27.3528 25.2472 27.576C24.8152 27.7452 24.1636 27.9432 22.9648 28.0008C21.6688 28.0584 21.28 28.0728 18.0004 28.0728C14.7208 28.0728 14.332 28.062 13.036 28.0008C11.8372 27.9468 11.1856 27.7452 10.7536 27.576C10.1812 27.3528 9.77076 27.0864 9.34236 26.658C8.91396 26.2296 8.64756 25.8192 8.42436 25.2468C8.25516 24.8148 8.05716 24.1632 7.99956 22.9644C7.94196 21.6684 7.92756 21.2796 7.92756 18C7.92756 14.7204 7.93836 14.3316 7.99956 13.0356C8.05356 11.8368 8.25516 11.1852 8.42436 10.7532C8.64756 10.1808 8.91396 9.7704 9.34236 9.342C9.77076 8.9136 10.1812 8.6472 10.7536 8.424C11.1856 8.2548 11.8372 8.0568 13.036 7.9992C14.332 7.938 14.7208 7.9272 18.0004 7.9272ZM18.0004 5.7132C14.6632 5.7132 14.2456 5.7276 12.9352 5.7888C11.6284 5.85 10.7356 6.0552 9.95076 6.3612C9.14436 6.6708 8.45676 7.092 7.77636 7.776C7.09236 8.46 6.67476 9.144 6.35796 9.954C6.05556 10.7352 5.84676 11.628 5.78556 12.9384C5.72436 14.2488 5.70996 14.6664 5.70996 18.0036C5.70996 21.3408 5.72436 21.7584 5.78556 23.0688C5.84676 24.3756 6.05196 25.2684 6.35796 26.0532C6.67116 26.856 7.09236 27.5436 7.77636 28.224C8.46036 28.908 9.14436 29.3256 9.95436 29.6424C10.7356 29.9448 11.6284 30.1536 12.9388 30.2148C14.2492 30.276 14.6668 30.2904 18.004 30.2904C21.3412 30.2904 21.7588 30.276 23.0692 30.2148C24.376 30.1536 25.2688 29.9484 26.0536 29.6424C26.8564 29.3292 27.544 28.908 28.2244 28.224C28.9084 27.54 29.326 26.856 29.6428 26.046C29.9452 25.2648 30.154 24.372 30.2152 23.0616C30.2764 21.7512 30.2908 21.3336 30.2908 17.9964C30.2908 14.6592 30.2764 14.2416 30.2152 12.9312C30.154 11.6244 29.9488 10.7316 29.6428 9.9468C29.3296 9.144 28.9084 8.4564 28.2244 7.776C27.5404 7.092 26.8564 6.6744 26.0464 6.3576C25.2652 6.0552 24.3724 5.8464 23.062 5.7852C21.7552 5.7276 21.3376 5.7132 18.0004 5.7132Z" fill="white"/>
<path d="M18.0003 11.6892C14.5155 11.6892 11.6895 14.5152 11.6895 18C11.6895 21.4848 14.5155 24.3108 18.0003 24.3108C21.4851 24.3108 24.3111 21.4848 24.3111 18C24.3111 14.5152 21.4851 11.6892 18.0003 11.6892ZM18.0003 22.0968C15.7395 22.0968 13.9035 20.2644 13.9035 18C13.9035 15.7356 15.7395 13.9032 18.0003 13.9032C20.2611 13.9032 22.0971 15.7356 22.0971 18C22.0971 20.2644 20.2611 22.0968 18.0003 22.0968Z" fill="white"/>
<path d="M24.56 12.9168C25.3752 12.9168 26.036 12.256 26.036 11.4408C26.036 10.6256 25.3752 9.96478 24.56 9.96478C23.7448 9.96478 23.084 10.6256 23.084 11.4408C23.084 12.256 23.7448 12.9168 24.56 12.9168Z" fill="white"/>
</g>
<defs>
<linearGradient id="paint0_linear_109_148" x1="5.27209" y1="30.7279" x2="30.7279" y2="5.27209" gradientUnits="userSpaceOnUse">
<stop stop-color="#FFD521"/>
<stop offset="0.0551048" stop-color="#FFD020"/>
<stop offset="0.1241" stop-color="#FEC01E"/>
<stop offset="0.2004" stop-color="#FCA71B"/>
<stop offset="0.2821" stop-color="#FA8316"/>
<stop offset="0.3681" stop-color="#F85510"/>
<stop offset="0.4563" stop-color="#F51E09"/>
<stop offset="0.5" stop-color="#F30005"/>
<stop offset="0.5035" stop-color="#F20007"/>
<stop offset="0.5966" stop-color="#E1003B"/>
<stop offset="0.6879" stop-color="#D30067"/>
<stop offset="0.7757" stop-color="#C70088"/>
<stop offset="0.8589" stop-color="#BF00A0"/>
<stop offset="0.9357" stop-color="#BB00AF"/>
<stop offset="1" stop-color="#B900B4"/>
</linearGradient>
<clipPath id="clip0_109_148">
<rect width="36" height="36" fill="white"/>
</clipPath>
</defs>
</svg>
