<svg width="36" height="36" viewBox="0 0 36 36" fill="none" xmlns="http://www.w3.org/2000/svg">
<g clip-path="url(#clip0_109_155)">
<path d="M18 35.9997C27.9411 35.9997 36 27.9408 36 17.9997C36 8.05857 27.9411 -0.000305176 18 -0.000305176C8.05888 -0.000305176 0 8.05857 0 17.9997C0 27.9408 8.05888 35.9997 18 35.9997Z" fill="#007AB9"/>
<path d="M28.7551 19.4481V26.8691H24.4526V19.9454C24.4526 18.207 23.8314 17.0197 22.2736 17.0197C21.0848 17.0197 20.3786 17.819 20.0667 18.593C19.9534 18.8695 19.9242 19.2536 19.9242 19.6416V26.8688H15.6214C15.6214 26.8688 15.6792 15.1424 15.6214 13.9285H19.9246V15.7623C19.9159 15.7767 19.9037 15.7908 19.896 15.8046H19.9246V15.7623C20.4963 14.8824 21.5161 13.6247 23.8022 13.6247C26.6329 13.6247 28.7551 15.4741 28.7551 19.4481ZM11.1203 7.69086C9.64847 7.69086 8.68555 8.65699 8.68555 9.92634C8.68555 11.1687 9.62055 12.1628 11.0638 12.1628H11.0917C12.5924 12.1628 13.5255 11.1687 13.5255 9.92634C13.4969 8.65699 12.5924 7.69086 11.1203 7.69086ZM8.94128 26.8691H13.2425V13.9285H8.94128V26.8691Z" fill="#F1F2F2"/>
</g>
<defs>
<clipPath id="clip0_109_155">
<rect width="36" height="36" fill="white"/>
</clipPath>
</defs>
</svg>
