<svg id="svg6" height="512" viewBox="0 0 180.62221 180.62221" width="512" xmlns="http://www.w3.org/2000/svg" xmlns:svg="http://www.w3.org/2000/svg" xmlns:lc="http://www.librecad.org"><linearGradient id="linearGradient4721"><stop id="stop4719" offset="0" stop-color="rgb(0,0,0)"/></linearGradient><g id="g832"><g id="g4" stroke-linecap="round" stroke-linejoin="round" stroke-width="10.59" transform="matrix(.75 0 0 .75 26.547 26.547)" lc:layername="1" lc:is_locked="false" lc:is_construction="false"><path id="circle2" d="m85.072266-5.2949219c-49.845344 0-90.3671879 40.5218439-90.3671879 90.3671879s40.5218439 90.365234 90.3671879 90.365234 90.365234-40.51989 90.365234-90.365234-40.51989-90.3671879-90.365234-90.3671879zm0 10.5898438c44.122144 0 79.775394 35.6552011 79.775394 79.7773441 0 44.122144-35.65325 79.775394-79.775394 79.775394-44.122143 0-79.7773441-35.65325-79.7773441-79.775394 0-44.122143 35.6552011-79.7773441 79.7773441-79.7773441z"/></g><circle id="path2495" cx="64.152" cy="90.311" r="6.615"/><circle id="path2495-9" cx="90.973" cy="90.311" r="6.615"/><circle id="path2495-8" cx="117.793" cy="90.311" r="6.615"/></g></svg>