<svg width="36" height="36" viewBox="0 0 36 36" fill="none" xmlns="http://www.w3.org/2000/svg">
<g clip-path="url(#clip0_109_145)">
<path d="M18 0C8.06041 0 0 8.06041 0 18C0 27.9396 8.06041 36 18 36C27.9396 36 36 27.9396 36 18C36 8.06041 27.9396 0 18 0ZM27.0302 13.7723V16.2096C25.881 16.21 24.7643 15.9848 23.7112 15.5405C23.034 15.2546 22.4031 14.8862 21.8261 14.4411L21.8434 21.9429C21.8361 23.6322 21.1678 25.2193 19.9582 26.4149C18.9738 27.388 17.7265 28.0068 16.3745 28.2071C16.0568 28.2542 15.7335 28.2783 15.4066 28.2783C13.9594 28.2783 12.5854 27.8094 11.4614 26.9445C11.2499 26.7816 11.0476 26.6051 10.8551 26.4149C9.54415 25.1192 8.86816 23.3632 8.982 21.5159C9.06884 20.1097 9.63183 18.7687 10.5704 17.7176C11.8121 16.3266 13.5492 15.5546 15.4066 15.5546C15.7335 15.5546 16.0568 15.5791 16.3745 15.6262V16.5273V19.0341C16.0733 18.9347 15.7516 18.8801 15.4166 18.8801C13.7197 18.8801 12.3469 20.2646 12.3723 21.9627C12.3884 23.0493 12.9819 23.9991 13.8573 24.5226C14.2687 24.7687 14.7419 24.9211 15.247 24.9488C15.6427 24.9706 16.0227 24.9154 16.3745 24.7993C17.5869 24.3988 18.4615 23.26 18.4615 21.9169L18.4655 16.8933V7.72172H21.822C21.8252 8.0543 21.859 8.37879 21.9217 8.69323C22.175 9.96595 22.8924 11.0701 23.8909 11.8229C24.7615 12.4796 25.8455 12.8688 27.0205 12.8688C27.0213 12.8688 27.031 12.8688 27.0302 12.868V13.7723H27.0302Z" fill="black"/>
</g>
<defs>
<clipPath id="clip0_109_145">
<rect width="36" height="36" fill="white"/>
</clipPath>
</defs>
</svg>
